<svg width="14" height="14" viewBox="0 0 14 14" fill="none" xmlns="http://www.w3.org/2000/svg">
<path d="M4.08615 14C3.32412 14 2.63409 13.8102 2.01607 13.4307C1.40405 13.0511 0.915033 12.544 0.54902 11.9093C0.183007 11.2684 0 10.5529 0 9.76267V4.23733C0 3.44711 0.183007 2.73467 0.54902 2.1C0.915033 1.45911 1.40405 0.948889 2.01607 0.569333C2.63409 0.189778 3.32412 0 4.08615 0C4.84817 0 5.5382 0.189778 6.15622 0.569333C6.77424 0.948889 7.26326 1.45911 7.62327 2.1C7.98929 2.73467 8.17229 3.44711 8.17229 4.23733V9.76267C8.17229 10.5529 7.98929 11.2684 7.62327 11.9093C7.26326 12.544 6.77424 13.0511 6.15622 13.4307C5.5382 13.8102 4.84817 14 4.08615 14ZM4.08615 12.9453C4.64417 12.9453 5.15118 12.8053 5.6072 12.5253C6.06922 12.2391 6.43823 11.8564 6.71424 11.3773C6.99025 10.8982 7.12825 10.3693 7.12825 9.79067V4.2C7.12825 3.62755 6.99025 3.10178 6.71424 2.62267C6.43823 2.14356 6.06922 1.764 5.6072 1.484C5.15118 1.19778 4.64417 1.05467 4.08615 1.05467C3.52813 1.05467 3.01811 1.19778 2.55609 1.484C2.10008 1.764 1.73406 2.14356 1.45805 2.62267C1.18204 3.10178 1.04404 3.62755 1.04404 4.2V9.79067C1.04404 10.3693 1.18204 10.8982 1.45805 11.3773C1.73406 11.8564 2.10008 12.2391 2.55609 12.5253C3.01811 12.8053 3.52813 12.9453 4.08615 12.9453Z" fill="#201F1F"/>
<path d="M12.956 13.72V1.50267L10.5079 3.024V1.792L12.956 0.28H14V13.72H12.956Z" fill="#201F1F"/>
</svg>
