<svg width="20" height="22" viewBox="0 0 20 22" fill="none" xmlns="http://www.w3.org/2000/svg">
<path d="M1.9995 13.0002C1.81027 13.0008 1.62474 12.9477 1.46446 12.8471C1.30418 12.7465 1.17574 12.6025 1.09405 12.4318C1.01237 12.2611 0.980797 12.0707 1.003 11.8828C1.02521 11.6949 1.10028 11.5171 1.2195 11.3702L11.1195 1.17016C11.1938 1.08444 11.295 1.02652 11.4065 1.0059C11.518 0.985272 11.6332 1.00318 11.7332 1.05667C11.8332 1.11016 11.9121 1.19606 11.9568 1.30027C12.0016 1.40448 12.0096 1.52081 11.9795 1.63016L10.0595 7.65016C10.0029 7.80169 9.98388 7.96468 10.0041 8.12517C10.0243 8.28566 10.0832 8.43884 10.1756 8.57159C10.268 8.70434 10.3913 8.81268 10.5348 8.88732C10.6783 8.96197 10.8377 9.00069 10.9995 9.00016H17.9995C18.1887 8.99952 18.3743 9.05258 18.5345 9.15318C18.6948 9.25379 18.8233 9.39781 18.905 9.56851C18.9866 9.7392 19.0182 9.92958 18.996 10.1175C18.9738 10.3054 18.8987 10.4832 18.7795 10.6302L8.8795 20.8302C8.80524 20.9159 8.70404 20.9738 8.59252 20.9944C8.481 21.0151 8.36578 20.9972 8.26577 20.9437C8.16577 20.8902 8.08692 20.8043 8.04217 20.7001C7.99742 20.5958 7.98943 20.4795 8.0195 20.3702L9.9395 14.3502C9.99612 14.1986 10.0151 14.0356 9.99491 13.8752C9.97469 13.7147 9.91584 13.5615 9.82341 13.4287C9.73098 13.296 9.60773 13.1876 9.46423 13.113C9.32073 13.0384 9.16126 12.9996 8.9995 13.0002H1.9995Z" stroke="url(#paint0_linear_488_1808)" stroke-linecap="round" stroke-linejoin="round"/>
<defs>
<linearGradient id="paint0_linear_488_1808" x1="19.0029" y1="11.0002" x2="0.996094" y2="11.0002" gradientUnits="userSpaceOnUse">
<stop stop-color="#B2FF2E"/>
<stop offset="0.524453" stop-color="#97E80C"/>
<stop offset="1" stop-color="#B2FF2E"/>
</linearGradient>
</defs>
</svg>
