<svg width="20" height="22" viewBox="0 0 20 22" fill="none" xmlns="http://www.w3.org/2000/svg">
<path d="M1.9995 12.9999C1.81027 13.0006 1.62474 12.9475 1.46446 12.8469C1.30418 12.7463 1.17574 12.6023 1.09405 12.4316C1.01237 12.2609 0.980797 12.0705 1.003 11.8826C1.02521 11.6946 1.10028 11.5169 1.2195 11.3699L11.1195 1.16992C11.1938 1.0842 11.295 1.02628 11.4065 1.00565C11.518 0.985028 11.6332 1.00293 11.7332 1.05642C11.8332 1.10991 11.9121 1.19582 11.9568 1.30003C12.0016 1.40424 12.0096 1.52057 11.9795 1.62992L10.0595 7.64992C10.0029 7.80144 9.98388 7.96444 10.0041 8.12493C10.0243 8.28541 10.0832 8.4386 10.1756 8.57135C10.268 8.70409 10.3913 8.81243 10.5348 8.88708C10.6783 8.96172 10.8377 9.00045 10.9995 8.99992H17.9995C18.1887 8.99927 18.3743 9.05234 18.5345 9.15294C18.6948 9.25355 18.8233 9.39756 18.905 9.56826C18.9866 9.73896 19.0182 9.92933 18.996 10.1173C18.9738 10.3052 18.8987 10.483 18.7795 10.6299L8.8795 20.8299C8.80524 20.9156 8.70404 20.9736 8.59252 20.9942C8.481 21.0148 8.36578 20.9969 8.26577 20.9434C8.16577 20.8899 8.08692 20.804 8.04217 20.6998C7.99742 20.5956 7.98943 20.4793 8.0195 20.3699L9.9395 14.3499C9.99612 14.1984 10.0151 14.0354 9.99491 13.8749C9.97469 13.7144 9.91584 13.5612 9.82341 13.4285C9.73098 13.2957 9.60773 13.1874 9.46423 13.1128C9.32073 13.0381 9.16126 12.9994 8.9995 12.9999H1.9995Z" stroke="#201F1F" stroke-linecap="round" stroke-linejoin="round"/>
</svg>
