<svg width="24" height="24" viewBox="0 0 24 24" fill="none" xmlns="http://www.w3.org/2000/svg">
<path d="M6.99977 19H4.81477C4.49934 19.0009 4.18902 18.9203 3.91394 18.7659C3.63886 18.6116 3.40834 18.3887 3.24477 18.119C3.08768 17.8481 3.00461 17.5407 3.00391 17.2275C3.00321 16.9144 3.08489 16.6066 3.24077 16.335L7.19577 9.5" stroke="url(#paint0_linear_488_3165)" stroke-linecap="round" stroke-linejoin="round"/>
<path d="M11 18.9998H19.203C19.5169 18.9974 19.8249 18.9143 20.0974 18.7584C20.3699 18.6025 20.5978 18.3792 20.759 18.1098C20.9139 17.8397 20.9954 17.5337 20.9954 17.2223C20.9954 16.9109 20.9139 16.605 20.759 16.3348L19.533 14.2148" stroke="url(#paint1_linear_488_3165)" stroke-linecap="round" stroke-linejoin="round"/>
<path d="M14 16L11 19L14 22" stroke="url(#paint2_linear_488_3165)" stroke-linecap="round" stroke-linejoin="round"/>
<path d="M8.29261 13.596L7.19561 9.5L3.09961 10.598" stroke="url(#paint3_linear_488_3165)" stroke-linecap="round" stroke-linejoin="round"/>
<path d="M9.34375 5.811L10.4368 3.919C10.5937 3.6454 10.8187 3.41701 11.0899 3.25599C11.3612 3.09497 11.6694 3.00679 11.9847 3C12.2977 2.99942 12.6053 3.08116 12.8766 3.23703C13.148 3.39289 13.3736 3.6174 13.5308 3.888L17.4738 10.731" stroke="url(#paint4_linear_488_3165)" stroke-linecap="round" stroke-linejoin="round"/>
<path d="M13.3789 9.63277L17.4749 10.7308L18.5719 6.63477" stroke="url(#paint5_linear_488_3165)" stroke-linecap="round" stroke-linejoin="round"/>
<defs>
<linearGradient id="paint0_linear_488_3165" x1="7.19577" y1="14.25" x2="3.00391" y2="14.25" gradientUnits="userSpaceOnUse">
<stop stop-color="#B2FF2E"/>
<stop offset="0.524453" stop-color="#97E80C"/>
<stop offset="1" stop-color="#B2FF2E"/>
</linearGradient>
<linearGradient id="paint1_linear_488_3165" x1="20.9954" y1="16.6073" x2="11" y2="16.6073" gradientUnits="userSpaceOnUse">
<stop stop-color="#B2FF2E"/>
<stop offset="0.524453" stop-color="#97E80C"/>
<stop offset="1" stop-color="#B2FF2E"/>
</linearGradient>
<linearGradient id="paint2_linear_488_3165" x1="14" y1="19" x2="11" y2="19" gradientUnits="userSpaceOnUse">
<stop stop-color="#B2FF2E"/>
<stop offset="0.524453" stop-color="#97E80C"/>
<stop offset="1" stop-color="#B2FF2E"/>
</linearGradient>
<linearGradient id="paint3_linear_488_3165" x1="8.29261" y1="11.548" x2="3.09961" y2="11.548" gradientUnits="userSpaceOnUse">
<stop stop-color="#B2FF2E"/>
<stop offset="0.524453" stop-color="#97E80C"/>
<stop offset="1" stop-color="#B2FF2E"/>
</linearGradient>
<linearGradient id="paint4_linear_488_3165" x1="17.4738" y1="6.8655" x2="9.34375" y2="6.8655" gradientUnits="userSpaceOnUse">
<stop stop-color="#B2FF2E"/>
<stop offset="0.524453" stop-color="#97E80C"/>
<stop offset="1" stop-color="#B2FF2E"/>
</linearGradient>
<linearGradient id="paint5_linear_488_3165" x1="18.5719" y1="8.68277" x2="13.3789" y2="8.68277" gradientUnits="userSpaceOnUse">
<stop stop-color="#B2FF2E"/>
<stop offset="0.524453" stop-color="#97E80C"/>
<stop offset="1" stop-color="#B2FF2E"/>
</linearGradient>
</defs>
</svg>
