<svg width="1561" height="671" viewBox="0 0 1561 671" fill="none" xmlns="http://www.w3.org/2000/svg">
<path d="M290.458 657.58V545.299H0V456.727L209.129 13.42H315.928L106.799 456.727H290.458V282.267H385.191V456.727H449.092V545.299H385.191V657.58H290.458Z" fill="#201F1F"/>
<path d="M780.695 671C736.903 671 698.176 661.457 664.512 642.371C630.849 622.986 604.336 596.444 584.972 562.745C565.906 529.046 556.373 490.277 556.373 446.439V224.561C556.373 180.723 565.906 141.954 584.972 108.255C604.336 74.5555 630.849 48.1629 664.512 29.0766C698.176 9.69221 736.903 0 780.695 0C824.488 0 863.215 9.69221 896.879 29.0766C930.542 48.1629 956.906 74.5555 975.972 108.255C995.336 141.954 1005.02 180.723 1005.02 224.561V446.439C1005.02 490.277 995.336 529.046 975.972 562.745C956.906 596.444 930.542 622.986 896.879 642.371C863.215 661.457 824.488 671 780.695 671ZM780.695 581.533C804.528 581.533 826.126 575.867 845.49 564.535C865.152 552.904 880.792 537.396 892.41 518.012C904.028 498.329 909.837 476.41 909.837 452.254V217.851C909.837 193.994 904.028 172.372 892.41 152.988C880.792 133.305 865.152 117.798 845.49 106.465C826.126 94.8347 804.528 89.0193 780.695 89.0193C756.863 89.0193 735.116 94.8347 715.454 106.465C696.09 117.798 680.599 133.305 668.981 152.988C657.363 172.372 651.554 193.994 651.554 217.851V452.254C651.554 476.41 657.363 498.329 668.981 518.012C680.599 537.396 696.09 552.904 715.454 564.535C735.116 575.867 756.863 581.533 780.695 581.533Z" fill="#201F1F"/>
<path d="M1402.37 657.58V545.299H1111.91V456.727L1321.04 13.42H1427.84L1218.71 456.727H1402.37V282.267H1497.1V456.727H1561V545.299H1497.1V657.58H1402.37Z" fill="#201F1F"/>
</svg>
