<svg width="48" height="48" viewBox="0 0 48 48" fill="none" xmlns="http://www.w3.org/2000/svg">
<circle cx="24" cy="24" r="23.5" stroke="url(#paint0_linear_331_3043)"/>
<path d="M20 34C20.5523 34 21 33.5523 21 33C21 32.4477 20.5523 32 20 32C19.4477 32 19 32.4477 19 33C19 33.5523 19.4477 34 20 34Z" fill="url(#paint1_linear_331_3043)" stroke="url(#paint2_linear_331_3043)" stroke-linecap="round" stroke-linejoin="round"/>
<path d="M31 34C31.5523 34 32 33.5523 32 33C32 32.4477 31.5523 32 31 32C30.4477 32 30 32.4477 30 33C30 33.5523 30.4477 34 31 34Z" fill="url(#paint3_linear_331_3043)" stroke="url(#paint4_linear_331_3043)" stroke-linecap="round" stroke-linejoin="round"/>
<path d="M14.0508 14.0498H16.0508L18.7108 26.4698C18.8084 26.9247 19.0615 27.3313 19.4265 27.6197M19.4265 27.6197C19.7915 27.908 20.2457 28.0602 20.7108 28.0498H30.4908C30.946 28.0491 31.3873 27.8931 31.7418 27.6076M19.4265 27.6197L31.7418 27.6076M31.7418 27.6076C32.0964 27.3222 32.3429 26.9243 32.4408 26.4798L34.0908 19.0498M31.7418 27.6076L34.0908 19.0498M34.0908 19.0498H17.1208" stroke="url(#paint5_linear_331_3043)" stroke-linecap="round" stroke-linejoin="round"/>
<defs>
<linearGradient id="paint0_linear_331_3043" x1="48" y1="24" x2="0" y2="24" gradientUnits="userSpaceOnUse">
<stop stop-color="#B2FF2E"/>
<stop offset="0.524453" stop-color="#97E80C"/>
<stop offset="1" stop-color="#B2FF2E"/>
</linearGradient>
<linearGradient id="paint1_linear_331_3043" x1="21" y1="33" x2="19" y2="33" gradientUnits="userSpaceOnUse">
<stop stop-color="#B2FF2E"/>
<stop offset="0.524453" stop-color="#97E80C"/>
<stop offset="1" stop-color="#B2FF2E"/>
</linearGradient>
<linearGradient id="paint2_linear_331_3043" x1="21" y1="33" x2="19" y2="33" gradientUnits="userSpaceOnUse">
<stop stop-color="#B2FF2E"/>
<stop offset="0.524453" stop-color="#97E80C"/>
<stop offset="1" stop-color="#B2FF2E"/>
</linearGradient>
<linearGradient id="paint3_linear_331_3043" x1="32" y1="33" x2="30" y2="33" gradientUnits="userSpaceOnUse">
<stop stop-color="#B2FF2E"/>
<stop offset="0.524453" stop-color="#97E80C"/>
<stop offset="1" stop-color="#B2FF2E"/>
</linearGradient>
<linearGradient id="paint4_linear_331_3043" x1="32" y1="33" x2="30" y2="33" gradientUnits="userSpaceOnUse">
<stop stop-color="#B2FF2E"/>
<stop offset="0.524453" stop-color="#97E80C"/>
<stop offset="1" stop-color="#B2FF2E"/>
</linearGradient>
<linearGradient id="paint5_linear_331_3043" x1="34.0908" y1="21.0501" x2="14.0508" y2="21.0501" gradientUnits="userSpaceOnUse">
<stop stop-color="#B2FF2E"/>
<stop offset="0.524453" stop-color="#97E80C"/>
<stop offset="1" stop-color="#B2FF2E"/>
</linearGradient>
</defs>
</svg>
