<svg width="22" height="14" viewBox="0 0 22 14" fill="none" xmlns="http://www.w3.org/2000/svg">
<path d="M0 13.7143L4.91847 0H6.85214L11.7706 13.7143H10.2534L5.58286 0.780953H6.158L1.51719 13.7143H0ZM2.19149 10.3905V9.07619H9.56919V10.3905H2.19149Z" fill="url(#paint0_linear_329_3718)"/>
<path d="M16.6254 14C15.8189 14 15.1413 13.8603 14.5926 13.581C14.0505 13.3016 13.6439 12.9302 13.3729 12.4667C13.1018 12.0032 12.9663 11.4984 12.9663 10.9524C12.9663 10.3937 13.082 9.91746 13.3134 9.52381C13.5513 9.12381 13.872 8.79683 14.2752 8.54286C14.6851 8.28889 15.1578 8.09524 15.6933 7.96191C16.2353 7.83492 16.8336 7.72381 17.4881 7.62857C18.1492 7.52698 18.7937 7.44127 19.4218 7.37143C20.0564 7.29524 20.6117 7.22222 21.0877 7.15238L20.5721 7.45714C20.5919 6.44127 20.387 5.68889 19.9573 5.2C19.5275 4.71111 18.7805 4.46667 17.7162 4.46667C16.9824 4.46667 16.361 4.6254 15.8519 4.94286C15.3495 5.26032 14.9958 5.7619 14.7909 6.44762L13.3729 6.04762C13.6175 5.12698 14.11 4.4127 14.8504 3.90476C15.5908 3.39683 16.5527 3.14286 17.736 3.14286C18.7144 3.14286 19.5441 3.32064 20.225 3.67619C20.9125 4.0254 21.3984 4.53333 21.6827 5.2C21.8149 5.49841 21.9008 5.83175 21.9405 6.2C21.9802 6.56825 22 6.94286 22 7.32381V13.7143H20.701V11.1333L21.0778 11.2857C20.7142 12.1683 20.149 12.8413 19.3821 13.3048C18.6153 13.7683 17.6963 14 16.6254 14ZM16.794 12.7905C17.4749 12.7905 18.0699 12.673 18.5789 12.4381C19.0879 12.2032 19.4978 11.8825 19.8085 11.4762C20.1192 11.0635 20.3208 10.6 20.4134 10.0857C20.4927 9.75556 20.5357 9.39365 20.5423 9C20.5489 8.6 20.5522 8.30159 20.5522 8.10476L21.1075 8.38095C20.6117 8.44444 20.0729 8.50794 19.4912 8.57143C18.916 8.63492 18.3475 8.70794 17.7856 8.79048C17.2303 8.87302 16.7279 8.97143 16.2783 9.08571C15.9742 9.16825 15.68 9.28572 15.3958 9.4381C15.1115 9.58413 14.8768 9.78095 14.6917 10.0286C14.5132 10.2762 14.424 10.5841 14.424 10.9524C14.424 11.2508 14.5 11.5397 14.6521 11.819C14.8107 12.0984 15.0619 12.3302 15.4057 12.5143C15.7561 12.6984 16.2188 12.7905 16.794 12.7905Z" fill="url(#paint1_linear_329_3718)"/>
<defs>
<linearGradient id="paint0_linear_329_3718" x1="22" y1="7" x2="0" y2="7" gradientUnits="userSpaceOnUse">
<stop stop-color="#B2FF2E"/>
<stop offset="0.524453" stop-color="#97E80C"/>
<stop offset="1" stop-color="#B2FF2E"/>
</linearGradient>
<linearGradient id="paint1_linear_329_3718" x1="22" y1="7" x2="0" y2="7" gradientUnits="userSpaceOnUse">
<stop stop-color="#B2FF2E"/>
<stop offset="0.524453" stop-color="#97E80C"/>
<stop offset="1" stop-color="#B2FF2E"/>
</linearGradient>
</defs>
</svg>
