<svg width="24" height="24" viewBox="0 0 24 24" fill="none" xmlns="http://www.w3.org/2000/svg">
<path d="M9.08615 19C8.32412 19 7.63409 18.8102 7.01607 18.4307C6.40405 18.0511 5.91503 17.544 5.54902 16.9093C5.18301 16.2684 5 15.5529 5 14.7627V9.23733C5 8.44711 5.18301 7.73467 5.54902 7.1C5.91503 6.45911 6.40405 5.94889 7.01607 5.56933C7.63409 5.18978 8.32412 5 9.08615 5C9.84817 5 10.5382 5.18978 11.1562 5.56933C11.7742 5.94889 12.2633 6.45911 12.6233 7.1C12.9893 7.73467 13.1723 8.44711 13.1723 9.23733V14.7627C13.1723 15.5529 12.9893 16.2684 12.6233 16.9093C12.2633 17.544 11.7742 18.0511 11.1562 18.4307C10.5382 18.8102 9.84817 19 9.08615 19ZM9.08615 17.9453C9.64417 17.9453 10.1512 17.8053 10.6072 17.5253C11.0692 17.2391 11.4382 16.8564 11.7142 16.3773C11.9903 15.8982 12.1283 15.3693 12.1283 14.7907V9.2C12.1283 8.62755 11.9903 8.10178 11.7142 7.62267C11.4382 7.14356 11.0692 6.764 10.6072 6.484C10.1512 6.19778 9.64417 6.05467 9.08615 6.05467C8.52813 6.05467 8.01811 6.19778 7.55609 6.484C7.10008 6.764 6.73406 7.14356 6.45805 7.62267C6.18204 8.10178 6.04404 8.62755 6.04404 9.2V14.7907C6.04404 15.3693 6.18204 15.8982 6.45805 16.3773C6.73406 16.8564 7.10008 17.2391 7.55609 17.5253C8.01811 17.8053 8.52813 17.9453 9.08615 17.9453Z" fill="url(#paint0_linear_329_3721)"/>
<path d="M17.956 18.72V6.50267L15.5079 8.024V6.792L17.956 5.28H19V18.72H17.956Z" fill="url(#paint1_linear_329_3721)"/>
<defs>
<linearGradient id="paint0_linear_329_3721" x1="19" y1="12" x2="5" y2="12" gradientUnits="userSpaceOnUse">
<stop stop-color="#B2FF2E"/>
<stop offset="0.524453" stop-color="#97E80C"/>
<stop offset="1" stop-color="#B2FF2E"/>
</linearGradient>
<linearGradient id="paint1_linear_329_3721" x1="19" y1="12" x2="5" y2="12" gradientUnits="userSpaceOnUse">
<stop stop-color="#B2FF2E"/>
<stop offset="0.524453" stop-color="#97E80C"/>
<stop offset="1" stop-color="#B2FF2E"/>
</linearGradient>
</defs>
</svg>
