<svg width="20" height="22" viewBox="0 0 20 22" fill="none" xmlns="http://www.w3.org/2000/svg">
<path d="M1.99999 13C1.81076 13.0007 1.62522 12.9476 1.46495 12.847C1.30467 12.7464 1.17623 12.6024 1.09454 12.4317C1.01286 12.261 0.981285 12.0706 1.00349 11.8827C1.0257 11.6947 1.10077 11.517 1.21999 11.37L11.12 1.17001C11.1943 1.08429 11.2955 1.02637 11.407 1.00574C11.5185 0.98512 11.6337 1.00302 11.7337 1.05651C11.8337 1.11001 11.9126 1.19591 11.9573 1.30012C12.0021 1.40433 12.0101 1.52066 11.98 1.63001L10.06 7.65001C10.0034 7.80153 9.98436 7.96453 10.0046 8.12502C10.0248 8.2855 10.0837 8.43869 10.1761 8.57144C10.2685 8.70418 10.3918 8.81253 10.5353 8.88717C10.6788 8.96182 10.8382 9.00054 11 9.00001H18C18.1892 8.99937 18.3748 9.05243 18.535 9.15303C18.6953 9.25364 18.8238 9.39766 18.9054 9.56835C18.9871 9.73905 19.0187 9.92942 18.9965 10.1174C18.9743 10.3053 18.8992 10.4831 18.78 10.63L8.87999 20.83C8.80573 20.9157 8.70453 20.9737 8.59301 20.9943C8.48149 21.0149 8.36627 20.997 8.26626 20.9435C8.16626 20.89 8.08741 20.8041 8.04266 20.6999C7.99791 20.5957 7.98991 20.4794 8.01999 20.37L9.93999 14.35C9.99661 14.1985 10.0156 14.0355 9.9954 13.875C9.97518 13.7145 9.91633 13.5613 9.8239 13.4286C9.73147 13.2958 9.60822 13.1875 9.46472 13.1129C9.32121 13.0382 9.16175 12.9995 8.99999 13H1.99999Z" stroke="url(#paint0_linear_329_3735)" stroke-linecap="round" stroke-linejoin="round"/>
<defs>
<linearGradient id="paint0_linear_329_3735" x1="19.0034" y1="11" x2="0.996582" y2="11" gradientUnits="userSpaceOnUse">
<stop stop-color="#B2FF2E"/>
<stop offset="0.524453" stop-color="#97E80C"/>
<stop offset="1" stop-color="#B2FF2E"/>
</linearGradient>
</defs>
</svg>
